<svg xmlns="http://www.w3.org/2000/svg" fill="none" viewBox="0 0 800 800">
    <style>
        .bold {
            stroke-width: 24px; 
            stroke: black;
        }
        .normal {
            stroke-width: 10px;
            stroke: black;
        }
        .thin {
            stroke-width: 8px;
            stroke: black;
        }
    </style>
    <path class='normal' d="M318.35 258.65L318.35 223.9L352.79 213.41L284.04 195.16L349.29 174.16L285.04 156.16L352.79 136.16L284.04 115.91L317.04 105.66L317.04 45.66" />
    <path class='normal' d="M318.41 472.09L318.41 376.59"/>
    <path class='normal' d="M425.18 472.09L211.68 472.09" />
    <path class='normal' d="M377.18 518.21L257.68 518.21" />
    <path class='normal' d="M337.18 558.21L300.18 558.21" />
    <path class='bold' d="M242.68 258.77L224.16 258.77L119.68 260.21L119.68 367.71L242.68 367.71" />
    <path class='bold' d="M242.68 313.24L130.18 313.24" />
    <path class='bold' d="M383.68 367.71L261.68 367.71L261.68 258.77L383.68 258.77" />
    <path class='bold' d="M524.68 367.71L403.18 367.71L403.18 258.65L524.68 258.77" />
    <path class='bold' d="M524.68 313.24L409.68 313.24" />
    <path class='thin' d="M620.01 313.24L320 603.84L18.05 313.24L318.41 22.28L620.01 313.24Z" />
</svg>